<svg width="160" height="160" viewBox="0 0 160 160" fill="none" xmlns="http://www.w3.org/2000/svg">
  <rect x="10" y="10" width="140" height="140" rx="36" fill="url(#paint0_linear)"/>
  <rect x="18" y="18" width="124" height="124" rx="28" fill="url(#paint1_linear)" fill-opacity="0.52" stroke="#FFFFFF" stroke-opacity="0.32"/>
  <path d="M56 108L80 50L104 108H94.8L89.2 94.6H70.8L65.2 108H56ZM74.3 86.4H85.7L80 72.5L74.3 86.4Z" fill="white"/>
  <path d="M45 119C54.6 128.1 67 133.5 80.7 133.5C106.8 133.5 128 112.3 128 86.2C128 78.6 126.2 71.4 123 65" stroke="rgba(255,255,255,0.66)" stroke-width="6" stroke-linecap="round"/>
  <defs>
    <linearGradient id="paint0_linear" x1="26" y1="18" x2="138" y2="144" gradientUnits="userSpaceOnUse">
      <stop stop-color="#2F6FD6"/>
      <stop offset="1" stop-color="#1F2A44"/>
    </linearGradient>
    <linearGradient id="paint1_linear" x1="30" y1="26" x2="126" y2="134" gradientUnits="userSpaceOnUse">
      <stop stop-color="white" stop-opacity="0.5"/>
      <stop offset="1" stop-color="#E7F0FF" stop-opacity="0.18"/>
    </linearGradient>
  </defs>
</svg>
